<svg xmlns="http://www.w3.org/2000/svg" viewBox="0 0 957 950" width="957" height="950"><defs><clipPath id="a"><path d="M100.025 381.256h146v56h-146z"/></clipPath><clipPath id="b"><path d="M385.27 381.256h146v56h-146z"/></clipPath><clipPath id="c"><path d="M734.5 173.514h151.468v20H734.5z"/></clipPath><clipPath id="d"><path d="M734.5 288.014h124v13h-124z"/></clipPath><clipPath id="e"><path d="M20.881 779.565h590.084v149.78H20.88z"/></clipPath><clipPath id="f"><path d="M151.673 691.565h145v54h-145z"/></clipPath><clipPath id="g"><path d="M336.673 691.565h145v54h-145z"/></clipPath><clipPath id="h"><path d="M734.5 257.682h124v13h-124z"/></clipPath><clipPath id="i"><path d="M734.5 207.378h151.468v20H734.5z"/></clipPath><clipPath id="j"><path d="M669.5 439.35h96v28h-96z"/></clipPath><clipPath id="k"><path d="M665.5 368.803h96v28h-96z"/></clipPath><clipPath id="l"><path d="M659.5 22.514h96v28h-96z"/></clipPath><clipPath id="m"><path d="M659.5 93.514h96v28h-96z"/></clipPath><clipPath id="n"><path d="M76.7 612.24h96v28h-96z"/></clipPath><clipPath id="o"><path d="M336 612.24h96v28h-96z"/></clipPath><clipPath id="p"><path d="M783.5 896h145v54h-145z"/></clipPath><clipPath id="q"><path d="M790.147 900.189h76.444v20h-76.444z"/></clipPath><clipPath id="r"><path d="M790.147 925.189h76.444v20h-76.444z"/></clipPath><clipPath id="s"><path d="M101.05 186.85h145v54h-145z"/></clipPath><clipPath id="t"><path d="M366.296 186.85h185.5v54h-185.5z"/></clipPath><clipPath id="u"><path d="M366.296 260.85h185.5v54h-185.5z"/></clipPath><clipPath id="v"><path d="M838 395h118v93H838z"/></clipPath></defs><g fill="none"><title>ha-vpn-gcp-to-on-prem-2-a</title><title>Layer 1</title><path fill="#eaedef" d="M.5.656h630.296v534.1H.5z"/><title>Page-1</title><title>Shape</title><path d="M29.308 31.685l-2.148 3.734h-5.625a1.4 1.4 0 0 1-1.215-.704l-4.55-7.933a1.401 1.401 0 0 1 0-1.393l1.732-3.017 2.137 3.713 3.222 5.6z" fill="#fbbc05"/><title>Shape</title><path d="M36.399 26.782l-4.55 7.934c-.25.435-.713.704-1.214.704h-3.476l2.147-3.734 3.225-5.601-3.225-5.6h4.28l2.812 4.904c.249.43.25.962.001 1.393z" fill="#ea4335"/><title>Shape</title><path d="M33.587 20.485H22.86l-3.222 5.6-2.137-3.715 2.818-4.914a1.4 1.4 0 0 1 1.215-.705h9.1c.502 0 .966.27 1.215.704z" fill="#4285f4"/><title>Shape</title><title>Oval</title><circle cx="26.085" cy="26.085" r="2.801" fill="#fff"/><title>GCP logo</title><title>Fill-3</title><path d="M95.183 26.39c0-3.23 2.441-5.671 5.64-5.671 1.639 0 3.019.652 3.99 1.774l-.971.94c-.758-.94-1.775-1.38-3.018-1.38-2.29 0-4.216 1.668-4.216 4.337 0 2.67 1.926 4.337 4.216 4.337 1.365 0 2.517-.637 3.336-1.577l.97.97c-.955 1.138-2.486 1.942-4.306 1.942-3.2 0-5.641-2.442-5.641-5.672" fill="#757575"/><title>Fill-5</title><path fill="#757575" d="M106.222 20.961h1.395v10.858h-1.395z"/><title>Fill-7</title><path d="M114.91 28.104c0-1.699-1.182-2.684-2.426-2.684-1.243 0-2.426.985-2.426 2.684 0 1.698 1.183 2.684 2.426 2.684 1.244 0 2.427-.986 2.427-2.684m1.395 0c0 2.259-1.593 3.958-3.822 3.958s-3.821-1.699-3.821-3.958c0-2.26 1.592-3.958 3.821-3.958 2.23 0 3.822 1.698 3.822 3.958" fill="#757575"/><title>Fill-8</title><path d="M122.614 31.819v-1.031h-.06c-.41.682-1.336 1.274-2.351 1.274-1.911 0-2.836-1.29-2.836-3.124v-4.55h1.395v4.322c0 1.547.773 2.078 1.834 2.078 1.214 0 1.957-1.168 1.957-2.305v-4.095h1.395v7.43z" fill="#757575"/><title>Fill-9</title><path d="M131.196 28.104c0-1.699-1.122-2.684-2.366-2.684-1.243 0-2.365 1.015-2.365 2.684 0 1.668 1.122 2.684 2.365 2.684 1.244 0 2.366-.986 2.366-2.684m-6.126 0c0-2.275 1.652-3.958 3.533-3.958 1.183 0 2.108.591 2.532 1.274h.061l-.061-1.031v-3.427h1.395v10.857h-1.334v-1.031h-.061c-.424.682-1.35 1.274-2.532 1.274-1.88 0-3.533-1.684-3.533-3.958" fill="#757575"/><title>Fill-10</title><path d="M140.066 26.087c1.244 0 1.941-1.031 1.941-1.896 0-.864-.697-1.895-1.94-1.895h-2.336v3.79zm-3.73 5.732V20.96h3.7c1.804 0 3.396 1.335 3.396 3.23 0 1.896-1.592 3.23-3.396 3.23h-2.305v4.398z" fill="#757575"/><title>Fill-11</title><path fill="#757575" d="M144.418 20.961h1.395v10.858h-1.395z"/><title>Fill-12</title><path d="M152.288 28.62s-.592-.486-1.775-.486c-1.47 0-2.047.788-2.047 1.47 0 .79.82 1.184 1.547 1.184 1.107 0 2.275-.956 2.275-2.169m-5.278.955c0-1.683 1.517-2.592 3.261-2.592 1 0 1.728.288 2.017.455v-.213c0-1.122-.895-1.804-1.942-1.804-.772 0-1.516.379-1.774 1.076l-1.273-.546c.257-.682 1.152-1.804 3.017-1.804 1.82 0 3.306 1.092 3.306 3.185v4.488h-1.334v-1.031h-.061c-.41.621-1.168 1.274-2.441 1.274-1.517 0-2.776-.94-2.776-2.488" fill="#757575"/><title>Fill-13</title><path d="M155.639 29.56v-3.898h-1.304v-1.274h1.304v-2.274h1.395v2.274h1.82v1.274h-1.82v3.791c0 .834.349 1.213 1 1.213.258 0 .44-.03.637-.121l.486 1.198c-.319.137-.652.197-1.122.197-1.563 0-2.396-.864-2.396-2.38" fill="#757575"/><title>Fill-14</title><path d="M164.706 21.098l-.485 1.198c-.182-.091-.379-.122-.637-.122-.698 0-1.243.41-1.243 1.274v.94h1.94v1.274h-1.94v6.157h-1.395v-6.157h-1.396v-1.274h1.396v-.985c0-1.516 1.076-2.502 2.638-2.502.47 0 .804.06 1.122.197" fill="#757575"/><title>Fill-15</title><path d="M170.908 28.104c0-1.699-1.183-2.684-2.426-2.684-1.244 0-2.426.985-2.426 2.684 0 1.698 1.182 2.684 2.426 2.684 1.243 0 2.426-.986 2.426-2.684m1.395 0c0 2.259-1.592 3.958-3.821 3.958-2.23 0-3.822-1.699-3.822-3.958 0-2.26 1.593-3.958 3.822-3.958s3.821 1.698 3.821 3.958" fill="#757575"/><title>Fill-16</title><path d="M173.425 31.819v-7.43h1.334v1.213h.061c.303-.85 1.38-1.395 2.154-1.395.454 0 .758.06 1.046.181l-.53 1.304c-.198-.075-.44-.106-.744-.106-.956 0-1.926.804-1.926 2.17v4.063z" fill="#757575"/><title>Fill-17</title><path d="M178.778 24.388h1.334v1.032h.06c.426-.713 1.411-1.274 2.29-1.274 1.198 0 1.972.546 2.35 1.425a3.023 3.023 0 0 1 2.594-1.425c1.82 0 2.654 1.289 2.654 3.124v4.549h-1.395v-4.337c0-1.547-.592-2.062-1.653-2.062-1.138 0-1.896 1.152-1.896 2.29v4.109h-1.395v-4.337c0-1.547-.591-2.062-1.653-2.062-1.137 0-1.896 1.152-1.896 2.29v4.109h-1.394z" fill="#757575"/><title>Fill-18</title><path d="M42.595 25.844c0-3.427 2.881-6.217 6.309-6.217 1.895 0 3.245.743 4.26 1.713l-1.197 1.198c-.728-.682-1.714-1.212-3.063-1.212-2.503 0-4.459 2.016-4.459 4.518s1.956 4.52 4.459 4.52c1.622 0 2.547-.653 3.138-1.244.486-.485.805-1.183.926-2.139h-4.064v-1.698h5.716c.061.304.091.667.091 1.062 0 1.273-.348 2.85-1.47 3.973-1.092 1.137-2.487 1.743-4.337 1.743-3.428 0-6.309-2.79-6.309-6.217" fill="#757575"/><title>Fill-19</title><path d="M59.332 30.484c-1.214 0-2.26-1-2.26-2.426 0-1.44 1.046-2.426 2.26-2.426 1.213 0 2.259.985 2.259 2.426 0 1.426-1.046 2.426-2.26 2.426m0-6.43c-2.214 0-4.018 1.684-4.018 4.004 0 2.305 1.804 4.004 4.019 4.004 2.213 0 4.018-1.699 4.018-4.004 0-2.32-1.805-4.003-4.018-4.003" fill="#757575"/><title>Fill-20</title><path d="M68.098 30.484c-1.213 0-2.26-1-2.26-2.426 0-1.44 1.047-2.426 2.26-2.426 1.213 0 2.26.985 2.26 2.426 0 1.426-1.047 2.426-2.26 2.426m0-6.43c-2.214 0-4.019 1.684-4.019 4.004 0 2.305 1.805 4.004 4.019 4.004 2.214 0 4.019-1.699 4.019-4.004 0-2.32-1.805-4.003-4.019-4.003" fill="#757575"/><title>Fill-21</title><path d="M76.841 30.484c-1.212 0-2.229-1.016-2.229-2.41 0-1.411 1.017-2.442 2.23-2.442 1.197 0 2.137 1.03 2.137 2.442 0 1.394-.94 2.41-2.138 2.41zm2.017-6.186v.652h-.06c-.395-.47-1.153-.895-2.108-.895-2.002 0-3.837 1.759-3.837 4.019 0 2.243 1.835 3.988 3.837 3.988.955 0 1.713-.425 2.107-.91h.061v.576c0 1.532-.819 2.35-2.138 2.35-1.077 0-1.744-.773-2.017-1.425l-1.532.637c.44 1.062 1.608 2.366 3.549 2.366 2.063 0 3.806-1.214 3.806-4.17v-7.188z" fill="#757575"/><title>Fill-22</title><path fill="#757575" d="M81.74 20.052h1.759v11.767H81.74z"/><title>Fill-23</title><path d="M88.184 25.602c.698 0 1.29.348 1.486.849l-3.578 1.486c-.046-1.547 1.197-2.335 2.092-2.335m.137 4.882c-.895 0-1.532-.409-1.941-1.212l5.353-2.215-.182-.455c-.334-.894-1.35-2.547-3.427-2.547-2.063 0-3.776 1.622-3.776 4.003 0 2.245 1.698 4.004 3.973 4.004 1.835 0 2.896-1.123 3.336-1.775l-1.365-.91c-.455.668-1.077 1.107-1.971 1.107" fill="#757575"/><title>zone external - blue</title><path d="M20.55 54.756h590.246v460H20.55z" stroke="#616161" stroke-linecap="round" stroke-linejoin="round" stroke-dasharray="1.0,4.0"/><text transform="translate(30.55 69.756)" fill="#757575"><tspan font-family="Roboto" font-size="10" font-weight="400" x="0" y="10">GCP Project</tspan></text><title>zone external - green</title><path fill="#e5f5fd" d="M40.55 98.756h550.246v396H40.55z"/><path d="M40.55 98.756h550.246v396H40.55z"/><text transform="translate(74.55 113.756)" fill="#757575"><tspan font-family="Roboto" font-size="10" font-weight="400" x="0" y="10">VPC Network: network-a</tspan></text><title>Virtual Private Cloud</title><title>Fill-1</title><path d="M70.003 119.409l-3.864-6.72c-.31-.536-.871-.863-1.449-.863h-7.728c-.62 0-1.16.363-1.45.863l-3.863 6.706a1.686 1.686 0 0 0 0 1.68l3.863 6.75c.31.536.872.894 1.45.894h7.727c.62 0 1.16-.39 1.45-.89l3.864-6.72c.31-.537.288-1.2 0-1.7" fill="#4285f4"/><title>Fill-4</title><path d="M64.298 116.791l-3.071 1.477-1.47-1.47-2.4 2.412 1.599 1.598-1.6 2.935 4.975 4.976h2.358c.62 0 1.16-.39 1.45-.89l3.357-5.84z" fill="#000" fill-opacity=".07"/><title>Fill-7</title><path fill="#fff" d="M58.329 118.877h.734v2.864h-.734z"/><title>Fill-9</title><path fill="#fff" d="M62.589 118.528h.734v3.206h-.734z"/><title>Fill-10</title><path fill="#fff" d="M59.412 117.775h2.828v.734h-2.828z"/><title>Fill-11</title><path fill="#fff" d="M59.412 122.035h2.828v.734h-2.828z"/><title>Fill-12</title><path d="M57.447 116.747h2.204c.08 0 .147.066.147.147v2.203a.147.147 0 0 1-.147.147h-2.204a.147.147 0 0 1-.147-.147v-2.203c0-.081.066-.147.147-.147" fill="#fff"/><title>Fill-13</title><path d="M62.001 116.747h2.203c.082 0 .147.066.147.147v2.203a.147.147 0 0 1-.147.147h-2.203a.147.147 0 0 1-.147-.147v-2.203c0-.081.066-.147.147-.147" fill="#fff"/><title>Fill-14</title><path d="M57.447 121.3h2.204c.08 0 .147.066.147.148v2.203a.147.147 0 0 1-.147.147h-2.204a.147.147 0 0 1-.147-.147v-2.203c0-.082.066-.147.147-.147" fill="#fff"/><title>Fill-15</title><path d="M62.001 121.3h2.203c.082 0 .147.066.147.148v2.203a.147.147 0 0 1-.147.147h-2.203a.147.147 0 0 1-.147-.147v-2.203c0-.082.066-.147.147-.147" fill="#fff"/><title>zone external - grey</title><path fill="#e5f2ec" d="M60.55 290.849h226v183.906h-226z"/><path stroke="#fff" stroke-linecap="round" stroke-linejoin="round" stroke-width="2" d="M60.55 290.849h226v183.906h-226z"/><text transform="translate(70.55 305.85)" fill="#757575"><tspan font-family="Roboto" font-size="10" font-weight="400" x="0" y="10">us-west1</tspan></text><title>zone internal - purple</title><path fill="#ede7f7" d="M81.05 334.849h185.5v119.906H81.05z"/><path stroke="#fff" stroke-linecap="round" stroke-linejoin="round" stroke-width="2" d="M81.05 334.849h185.5v119.906H81.05z"/><text transform="translate(91.05 349.85)" fill="#757575"><tspan font-family="Roboto" font-size="10" font-weight="400" x="0" y="10">subnet-a-west: 10.0.2.0/24</tspan></text><path fill="#fff" d="M100.025 381.256h146v56h-146z"/><path stroke="#dfdfdf" stroke-linecap="round" stroke-linejoin="round" stroke-width="2" clip-path="url(#a)" d="M100.025 381.256h146v56h-146z"/><text transform="translate(151.025 400.756)" fill="#212121"><tspan font-family="Roboto" font-size="12" font-weight="400" x="0" y="13">GCP Resources</tspan></text><title>Generic GCP</title><title>Fill-1</title><path d="M143.691 407.97l-5.754-10.007c-.461-.799-1.297-1.285-2.158-1.285h-11.508c-.922 0-1.727.54-2.158 1.285l-5.754 9.986a2.51 2.51 0 0 0 0 2.501l5.754 10.052c.46.799 1.297 1.332 2.158 1.332h11.508c.922 0 1.727-.581 2.158-1.326l5.754-10.007a2.566 2.566 0 0 0 0-2.532" fill="#4285f4"/><title>Fill-4</title><path d="M133.451 403.73l-5.836.94-1.146 3.829-1.767-1.537 1.855 7.795 7.077 7.077h2.145c.922 0 1.727-.581 2.158-1.326l4.47-7.773z" fill="#000" fill-opacity=".07"/><title>Fill-6</title><path d="M131.722 409.273a1.734 1.734 0 1 1-3.468 0 1.734 1.734 0 0 1 3.468 0" fill="#fff"/><title>Fill-8</title><path d="M136.41 408.825l-1.298-2.261h-2.65l1.552 2.698-.418.728-1.579 2.743-.488.846-.852 1.465h2.151a.875.875 0 0 0 .753-.437l2.83-4.907a.875.875 0 0 0 0-.864" fill="#fff"/><title>Fill-10</title><path d="M128.024 412.733l-1.996-3.47-1.326-2.301-1.071 1.863a.875.875 0 0 0 0 .864l2.819 4.92a.875.875 0 0 0 .752.437h2.589l1.336-2.313z" fill="#fff"/><title>Fill-12</title><path d="M134.67 405.792l-1.076-1.876a.875.875 0 0 0-.752-.438h-5.64a.875.875 0 0 0-.752.438l-1.308 2.285 1.327 2.298 1.553-2.699h6.648z" fill="#fff"/><g><title>zone external - grey</title><path fill="#e5f2ec" d="M346.296 142.849h225.5v331.906h-225.5z"/><path stroke="#fff" stroke-linecap="round" stroke-linejoin="round" stroke-width="2" d="M346.296 142.849h225.5v331.906h-225.5z"/><text transform="translate(356.296 157.85)" fill="#757575"><tspan font-family="Roboto" font-size="10" font-weight="400" x="0" y="10">us-central1</tspan></text></g><g><title>zone internal - purple</title><path fill="#ede7f7" d="M366.296 334.849h185.5v119.906h-185.5z"/><path stroke="#fff" stroke-linecap="round" stroke-linejoin="round" stroke-width="2" d="M366.296 334.849h185.5v119.906h-185.5z"/><text transform="translate(376.296 349.85)" fill="#757575"><tspan font-family="Roboto" font-size="10" font-weight="400" x="0" y="10">subnet-a-central: 10.0.1.0/24</tspan></text><path fill="#fff" d="M385.271 381.256h146v56h-146z"/><path stroke="#dfdfdf" stroke-linecap="round" stroke-linejoin="round" stroke-width="2" clip-path="url(#b)" d="M385.271 381.256h146v56h-146z"/><text transform="translate(436.27 400.756)" fill="#212121"><tspan font-family="Roboto" font-size="12" font-weight="400" x="0" y="13">GCP Resources</tspan></text><title>Generic GCP</title><title>Fill-1</title><path d="M428.937 407.97l-5.754-10.007c-.462-.799-1.298-1.285-2.158-1.285h-11.508c-.922 0-1.727.54-2.158 1.285l-5.754 9.986a2.51 2.51 0 0 0 0 2.501l5.753 10.052c.462.799 1.298 1.332 2.158 1.332h11.508c.923 0 1.728-.581 2.158-1.326l5.754-10.007a2.566 2.566 0 0 0 0-2.532" fill="#4285f4"/><title>Fill-4</title><path d="M418.697 403.73l-5.836.94-1.146 3.829-1.767-1.537 1.855 7.795 7.077 7.077h2.144c.923 0 1.728-.581 2.158-1.326l4.47-7.773z" fill="#000" fill-opacity=".07"/><title>Fill-6</title><path d="M416.968 409.273a1.734 1.734 0 1 1-3.468 0 1.734 1.734 0 0 1 3.468 0" fill="#fff"/><title>Fill-8</title><path d="M421.656 408.825l-1.299-2.261h-2.65l1.552 2.698-.417.728-1.58 2.743-.487.846-.853 1.465h2.152a.875.875 0 0 0 .752-.437l2.83-4.907a.875.875 0 0 0 0-.864" fill="#fff"/><title>Fill-10</title><path d="M413.27 412.733l-1.997-3.47-1.325-2.301-1.072 1.863a.875.875 0 0 0 0 .864l2.82 4.92a.875.875 0 0 0 .751.437h2.59l1.336-2.313z" fill="#fff"/><g><title>Fill-12</title><path d="M419.915 405.792l-1.075-1.876a.875.875 0 0 0-.753-.438h-5.64a.875.875 0 0 0-.752.438l-1.308 2.285 1.328 2.298 1.553-2.699h6.647z" fill="#fff"/></g></g><g><title>zone external - grey</title><path fill="#eeebe9" d="M.5 735.565h630.342v213.779H.5z"/><path d="M.5 735.565h630.342v213.779H.5z"/><text transform="translate(10.5 750.565)" fill="#757575"><tspan font-family="Roboto" font-size="10" font-weight="400" x="0" y="10">On-premises Network</tspan></text></g><g><title>small spacer</title><path fill="#673ab7" d="M555.75 194.356h8v10h-8z"/></g><g><title>small spacer</title><path fill="#f4b400" d="M555.75 224.356h8v10h-8z"/></g><g><title>small spacer</title><path fill="#673ab7" d="M555.75 270.756h8v10h-8z"/></g><g><title>small spacer</title><path fill="#f4b400" d="M555.75 300.756h8v10h-8z"/></g><g><path clip-path="url(#c)" d="M734.5 173.514h151.468v20H734.5z"/><text transform="translate(736.835 176.514)" fill="#666"><tspan font-family="Roboto" font-size="10" font-weight="400" x="0" y="10">VPN Tunnel 0 (Encrypted Traffic)</tspan></text></g><g><path clip-path="url(#d)" d="M734.5 288.014h124v13h-124z"/><text transform="translate(740.086 287.514)" fill="#666"><tspan font-family="Roboto" font-size="10" font-weight="400" x="0" y="10">BGP (Routes Exchanged)</tspan></text></g><g><title>zone internal - purple</title><path fill="#fff" d="M20.881 779.565h590.084v149.779H20.881z"/><path stroke="#dfdfdf" stroke-linecap="round" stroke-linejoin="round" stroke-width="2" clip-path="url(#e)" d="M20.881 779.565h590.084v149.779H20.881z"/><text transform="translate(216.44 798.455)" fill="#212121"><tspan font-family="Roboto" font-size="12" font-weight="400" x="0" y="13">On-premises Subnets and Resources</tspan> <tspan font-family="Roboto" font-size="12" font-weight="400" x="65.188" y="45">(ASN 65002)</tspan> <tspan font-family="Roboto" font-size="12" font-weight="400" x="58.395" y="77">192.168.1.0/24</tspan> <tspan font-family="Roboto" font-size="12" font-weight="400" x="94.667" y="93">...</tspan> <tspan font-family="Roboto" font-size="12" font-weight="400" x="55.014" y="109">192.168.30.0/24</tspan></text></g><g><path fill="#fff" d="M151.673 691.565h145v54h-145z"/><path stroke="#dfdfdf" stroke-linecap="round" stroke-linejoin="round" stroke-width="2" clip-path="url(#f)" d="M151.673 691.565h145v54h-145z"/><text transform="translate(192.673 702.565)" fill="#212121"><tspan font-family="Roboto" font-size="12" font-weight="400" x="0" y="13">On-premises</tspan> <tspan font-family="Roboto" font-size="12" font-weight="400" x="0" y="29">VPN Gateway 1</tspan></text></g><g><path d="M183.673 714.565h-14c-1.1 0-2 .9-2 2v4c0 1.1.9 2 2 2h14c1.1 0 2-.9 2-2v-4c0-1.1-.9-2-2-2zm-11 5h-2v-2h2zm3.5 0h-2v-2h2zm3.5 0h-2v-2h2z" fill="#616161"/></g><g><path fill="#fff" d="M336.673 691.565h145v54h-145z"/><path stroke="#dfdfdf" stroke-linecap="round" stroke-linejoin="round" stroke-width="2" clip-path="url(#g)" d="M336.673 691.565h145v54h-145z"/><text transform="translate(377.673 702.565)" fill="#212121"><tspan font-family="Roboto" font-size="12" font-weight="400" x="0" y="13">On-premises</tspan> <tspan font-family="Roboto" font-size="12" font-weight="400" x="0" y="29">VPN Gateway 2</tspan></text></g><g><path d="M368.673 714.565h-14c-1.1 0-2 .9-2 2v4c0 1.1.9 2 2 2h14c1.1 0 2-.9 2-2v-4c0-1.1-.9-2-2-2zm-11 5h-2v-2h2zm3.5 0h-2v-2h2zm3.5 0h-2v-2h2z" fill="#616161"/></g><g><title>small spacer</title><path fill="#6041b0" d="M219.173 679.673h10v8h-10z"/></g><g><title>small spacer</title><path fill="#ebb53e" d="M404.173 679.673h10v8h-10z"/></g><g><path clip-path="url(#h)" d="M734.5 257.682h124v13h-124z"/><text transform="translate(740.086 257.182)" fill="#666"><tspan font-family="Roboto" font-size="10" font-weight="400" x="0" y="10">BGP (Routes Exchanged)</tspan></text></g><g><path clip-path="url(#i)" d="M734.5 207.378h151.468v20H734.5z"/><text transform="translate(736.838 210.378)" fill="#666"><tspan font-family="Roboto" font-size="10" font-weight="400" x="0" y="10">VPN Tunnel 1 (Encrypted Traffic)</tspan></text></g><g><path clip-path="url(#j)" d="M669.5 439.349h96v28h-96z"/><text transform="translate(679.5 439.85)" fill="#666"><tspan font-family="Roboto" font-size="10" font-weight="400" x="0" y="10">BGP Session 1</tspan> <tspan font-family="Roboto" font-size="10" font-weight="400" x="0" y="24">169.254.1.1</tspan></text></g><g><path clip-path="url(#k)" d="M665.5 368.803h96v28h-96z"/><text transform="translate(675.5 369.303)" fill="#666"><tspan font-family="Roboto" font-size="10" font-weight="400" x="0" y="10">BGP Session 0</tspan> <tspan font-family="Roboto" font-size="10" font-weight="400" x="0" y="24">169.254.0.1</tspan></text></g><g><path clip-path="url(#l)" d="M659.5 22.514h96v28h-96z"/><text transform="translate(669.5 23.014)" fill="#666"><tspan font-family="Roboto" font-size="10" font-weight="400" x="0" y="10">Interface 0</tspan> <tspan font-family="Roboto" font-size="10" font-weight="400" x="0" y="24">Regional external IP</tspan></text></g><g><path clip-path="url(#m)" d="M659.5 93.514h96v28h-96z"/><text transform="translate(669.5 94.014)" fill="#666"><tspan font-family="Roboto" font-size="10" font-weight="400" x="0" y="10">Interface 1</tspan> <tspan font-family="Roboto" font-size="10" font-weight="400" x="0" y="24">Regional external IP</tspan></text></g><g><path clip-path="url(#n)" d="M76.7 612.24h96v28h-96z"/><text transform="translate(86.7 612.74)" fill="#666"><tspan font-family="Roboto" font-size="10" font-weight="400" x="0" y="10">External IP and</tspan> <tspan font-family="Roboto" font-size="10" font-weight="400" x="0" y="24">BGP IP 169.254.0.2</tspan></text></g><g><path clip-path="url(#o)" d="M336 612.24h96v28h-96z"/><text transform="translate(346 612.74)" fill="#666"><tspan font-family="Roboto" font-size="10" font-weight="400" x="0" y="10">External IP and</tspan> <tspan font-family="Roboto" font-size="10" font-weight="400" x="0" y="24">BGP IP 169.254.1.2</tspan></text></g><g><path fill="#fff" d="M783.5 896h145v54h-145z"/><path stroke="#dfdfdf" stroke-linecap="round" stroke-linejoin="round" stroke-width="2" clip-path="url(#p)" d="M783.5 896h145v54h-145z"/><path clip-path="url(#q)" d="M790.147 900.189h76.445v20h-76.445z"/><text transform="translate(790.147 903.189)" fill="#666"><tspan font-family="Roboto" font-size="10" font-weight="400" x="0" y="10">Data plane</tspan></text><title>path solid</title><path d="M866.591 909.689h55.262" stroke="#616161" stroke-linecap="round" stroke-linejoin="round"/><g><path clip-path="url(#r)" d="M790.147 925.189h76.445v20h-76.445z"/><text transform="translate(790.147 928.189)" fill="#666"><tspan font-family="Roboto" font-size="10" font-weight="400" x="0" y="10">Control plane</tspan></text></g></g><g><path d="M919.591 938.2h-1c-.3 0-.5-.2-.5-.5s.2-.5.5-.5h1c.3 0 .5.2.5.5s-.2.5-.5.5zm-4 0h-1c-.3 0-.5-.2-.5-.5s.2-.5.5-.5h1c.3 0 .5.2.5.5s-.2.5-.5.5zm-4 0h-1c-.3 0-.5-.2-.5-.5s.2-.5.5-.5h1c.3 0 .5.2.5.5s-.2.5-.5.5zm-4 0h-1c-.3 0-.5-.2-.5-.5s.2-.5.5-.5h1c.3 0 .5.2.5.5s-.2.5-.5.5zm-4 0h-1c-.3 0-.5-.2-.5-.5s.2-.5.5-.5h1c.3 0 .5.2.5.5s-.2.5-.5.5zm-4 0h-1c-.3 0-.5-.2-.5-.5s.2-.5.5-.5h1c.3 0 .5.2.5.5s-.2.5-.5.5zm-4 0h-1c-.3 0-.5-.2-.5-.5s.2-.5.5-.5h1c.3 0 .5.2.5.5s-.2.5-.5.5zm-4 0h-1c-.3 0-.5-.2-.5-.5s.2-.5.5-.5h1c.3 0 .5.2.5.5s-.2.5-.5.5zm-4 0h-1c-.3 0-.5-.2-.5-.5s.2-.5.5-.5h1c.3 0 .5.2.5.5s-.2.5-.5.5zm-4 0h-1c-.3 0-.5-.2-.5-.5s.2-.5.5-.5h1c.3 0 .5.2.5.5s-.2.5-.5.5zm-4 0h-1c-.3 0-.5-.2-.5-.5s.2-.5.5-.5h1c.3 0 .5.2.5.5s-.2.5-.5.5zm-4 0h-1c-.3 0-.5-.2-.5-.5s.2-.5.5-.5h1c.3 0 .5.2.5.5s-.2.5-.5.5zm-4 0h-1c-.3 0-.5-.2-.5-.5s.2-.5.5-.5h1c.3 0 .5.2.5.5s-.2.5-.5.5zm-4 0h-1c-.3 0-.5-.2-.5-.5s.2-.5.5-.5h1c.3 0 .5.2.5.5s-.2.5-.5.5z" fill="#616161"/></g><g><path d="M866.591 910.189h55.262a.5.5 0 1 0 0-1h-55.262a.5.5 0 1 0 0 1z" fill="#616161"/></g><g><title>Artboard</title><title>Combined-Shape</title><path d="M245.313 215.397a.507.507 0 0 1-.513-.5c0-.276.23-.5.513-.5h1.027c.284 0 .514.224.514.5s-.23.5-.514.5zm5.135 0a.507.507 0 0 1-.514-.5c0-.276.23-.5.514-.5h1.027c.283 0 .513.224.513.5s-.23.5-.513.5zm5.134 0a.507.507 0 0 1-.513-.5c0-.276.23-.5.513-.5h1.027c.284 0 .514.224.514.5s-.23.5-.514.5zm5.135 0a.507.507 0 0 1-.514-.5c0-.276.23-.5.514-.5h1.027c.283 0 .513.224.513.5s-.23.5-.513.5zm5.134 0a.507.507 0 0 1-.513-.5c0-.276.23-.5.513-.5h1.027c.284 0 .514.224.514.5s-.23.5-.514.5zm5.135 0a.507.507 0 0 1-.514-.5c0-.276.23-.5.514-.5h1.027c.283 0 .513.224.513.5s-.23.5-.513.5zm5.134 0a.507.507 0 0 1-.513-.5c0-.276.23-.5.513-.5h1.027c.284 0 .514.224.514.5s-.23.5-.514.5zm5.135 0a.507.507 0 0 1-.514-.5c0-.276.23-.5.514-.5h1.026c.284 0 .514.224.514.5s-.23.5-.514.5zm5.134 0a.507.507 0 0 1-.513-.5c0-.276.23-.5.513-.5h1.027c.284 0 .513.224.513.5s-.23.5-.513.5zm5.135 0a.507.507 0 0 1-.514-.5c0-.276.23-.5.514-.5h1.026c.284 0 .514.224.514.5s-.23.5-.514.5zm5.134 0a.507.507 0 0 1-.513-.5c0-.276.23-.5.513-.5h1.027c.283 0 .513.224.513.5s-.23.5-.513.5zm5.134 0a.507.507 0 0 1-.513-.5c0-.276.23-.5.513-.5h1.027c.284 0 .514.224.514.5s-.23.5-.514.5zm5.135 0a.507.507 0 0 1-.514-.5c0-.276.23-.5.514-.5h1.027c.283 0 .513.224.513.5s-.23.5-.513.5zm5.134 0a.507.507 0 0 1-.513-.5c0-.276.23-.5.513-.5h1.027c.284 0 .514.224.514.5s-.23.5-.514.5zm5.135 0a.507.507 0 0 1-.514-.5c0-.276.23-.5.514-.5h1.027c.283 0 .513.224.513.5s-.23.5-.513.5zm5.134 0a.507.507 0 0 1-.513-.5c0-.276.23-.5.513-.5h1.027c.284 0 .514.224.514.5s-.23.5-.514.5zm5.135 0a.507.507 0 0 1-.514-.5c0-.276.23-.5.514-.5h1.027c.283 0 .513.224.513.5s-.23.5-.513.5zm4.62-.5c0-.276.23-.5.514-.5.287 0 .517.224.517.5v.997c0 .276-.23.5-.514.5a.507.507 0 0 1-.513-.5v-.943a.492.492 0 0 1-.003-.054zm.004 4.997c0-.276.23-.5.513-.5.284 0 .514.224.514.5v1c0 .276-.23.5-.514.5a.507.507 0 0 1-.513-.5zm0 5c0-.276.23-.5.513-.5.284 0 .514.224.514.5v1c0 .276-.23.5-.514.5a.507.507 0 0 1-.513-.5zm0 5c0-.276.23-.5.513-.5.284 0 .514.224.514.5v1c0 .276-.23.5-.514.5a.507.507 0 0 1-.513-.5zm0 5c0-.276.23-.5.513-.5.284 0 .514.224.514.5v1c0 .276-.23.5-.514.5a.507.507 0 0 1-.513-.5zm0 5c0-.276.23-.5.513-.5.284 0 .514.224.514.5v1c0 .276-.23.5-.514.5a.507.507 0 0 1-.513-.5zm0 5c0-.276.23-.5.513-.5.284 0 .514.224.514.5v1c0 .276-.23.5-.514.5a.507.507 0 0 1-.513-.5zm0 5c0-.276.23-.5.513-.5.284 0 .514.224.514.5v1c0 .276-.23.5-.514.5a.507.507 0 0 1-.513-.5zm0 5c0-.276.23-.5.513-.5.284 0 .514.224.514.5v1c0 .276-.23.5-.514.5a.507.507 0 0 1-.513-.5zm0 5c0-.276.23-.5.513-.5.284 0 .514.224.514.5v1c0 .276-.23.5-.514.5a.507.507 0 0 1-.513-.5zm0 5c0-.276.23-.5.513-.5.284 0 .514.224.514.5v1c0 .276-.23.5-.514.5a.507.507 0 0 1-.513-.5zm0 5c0-.276.23-.5.513-.5.284 0 .514.224.514.5v1c0 .276-.23.5-.514.5a.507.507 0 0 1-.513-.5zm0 5c0-.276.23-.5.513-.5.284 0 .514.224.514.5v1c0 .276-.23.5-.514.5a.507.507 0 0 1-.513-.5zm0 5c0-.276.23-.5.513-.5.284 0 .514.224.514.5v1c0 .276-.23.5-.514.5a.507.507 0 0 1-.513-.5zm0 5c0-.276.23-.5.513-.5.284 0 .514.224.514.5v1c0 .276-.23.5-.514.5a.507.507 0 0 1-.513-.5zm2.564 3.503a.507.507 0 0 1-.514-.5c0-.276.23-.5.514-.5h1.027c.283 0 .513.224.513.5s-.23.5-.513.5zm5.134 0a.507.507 0 0 1-.513-.5c0-.276.23-.5.513-.5h1.027c.284 0 .514.224.514.5s-.23.5-.514.5zm5.135 0a.507.507 0 0 1-.514-.5c0-.276.23-.5.514-.5h1.027c.283 0 .513.224.513.5s-.23.5-.513.5zm5.134 0a.507.507 0 0 1-.513-.5c0-.276.23-.5.513-.5h1.027c.284 0 .514.224.514.5s-.23.5-.514.5zm5.135 0a.507.507 0 0 1-.514-.5c0-.276.23-.5.514-.5h1.027c.283 0 .513.224.513.5s-.23.5-.513.5zm5.134 0a.507.507 0 0 1-.513-.5c0-.276.23-.5.513-.5h1.027c.284 0 .514.224.514.5s-.23.5-.514.5zm5.135 0a.507.507 0 0 1-.514-.5c0-.276.23-.5.514-.5h1.027c.283 0 .513.224.513.5s-.23.5-.513.5z" fill="#616161"/></g><g><path fill="#fff" d="M101.05 186.849h145v54h-145z"/><path stroke="#dfdfdf" stroke-linecap="round" stroke-linejoin="round" stroke-width="2" clip-path="url(#s)" d="M101.05 186.849h145v54h-145z"/><text transform="translate(142.05 205.35)" fill="#212121"><tspan font-family="Roboto" font-size="12" font-weight="400" x="0" y="13">VPC Routing</tspan></text><path d="M123.683 211l-5.214-5.203-1.419 1.42 5.204 5.203zm3.936-5.203l2.053 2.053-12.622 12.633 1.42 1.419 12.632-12.622 2.053 2.053v-5.536zm.332 9.472l-1.42 1.419 3.151 3.15-2.063 2.064h5.536v-5.536l-2.053 2.053-3.15-3.15z" fill="#757575"/></g><g><path d="M223.673 745.565v34.308a.5.5 0 0 0 1 0v-34.308a.5.5 0 0 0-1 0z" fill="#616161"/></g><g><path d="M408.673 745.565v34.308a.5.5 0 0 0 1 0v-34.308a.5.5 0 0 0-1 0z" fill="#616161"/></g><g><path d="M336.228 623.923H320.93a.5.5 0 0 0-.5.5v59.25a.5.5 0 0 0 .5.5h72.318a.5.5 0 1 0 0-1H320.93l.5.5v-59.25l-.5.5h15.297a.5.5 0 1 0 0-1zm65.021 59.25h-8v1h8zm-4.353-3.147l4 4v-.707l-4 4 .707.707 4-4 .354-.353-.354-.354-4-4z" fill="#616161"/></g><g><path d="M76.7 625.204H65.589a.5.5 0 0 0-.5.5v57.818a.5.5 0 0 0 .5.5H207.01a.5.5 0 0 0 0-1H65.589l.5.5v-57.818l-.5.5H76.7a.5.5 0 0 0 0-1zm138.31 57.818h-8v1h8zm-4.353-3.146l4 4v-.708l-4 4 .707.708 4-4 .354-.354-.354-.354-4-4z" fill="#616161"/></g><g><path d="M659.5 107.014h-17.37a.5.5 0 0 0-.5.5v140.117l.5-.5h-82.38l.5.5v-3.375a.5.5 0 1 0-1 0v3.375a.5.5 0 0 0 .5.5h82.38a.5.5 0 0 0 .5-.5V107.514l-.5.5h17.37a.5.5 0 0 0 0-1zM559.25 236.256v8h1v-8zm-3.146 4.353l4-4h-.708l4 4 .708-.707-4-4-.354-.353-.354.353-4 4z" fill="#616161"/></g><g><path d="M659.5 36.014h-99.002a.5.5 0 0 0-.5.5v146.987a.5.5 0 1 0 1 0V36.514l-.5.5H659.5a.5.5 0 0 0 0-1zm-98.502 155.487v-8h-1v8zm3.147-4.354l-4 4h.707l-4-4-.707.707 4 4 .353.354.354-.354 4-4z" fill="#616161"/></g><g><path d="M665.5 382.303h-23.772l.5.5v-14l-.157-114.143a.5.5 0 0 0-.5-.5h-81.208a.5.5 0 0 0-.5.5v4.866a.5.5 0 0 0 1 0v-4.865l-.5.5h81.208l-.5-.5.157 114.142v14a.5.5 0 0 0 .5.5H665.5a.5.5 0 1 0 0-1zM560.863 267.526v-8h-1v8zm3.146-4.354l-4 4h.708l-4-4-.707.707 4 4 .353.354.354-.354 4-4z" fill="#616161"/></g><g><path d="M669.5 452.85H560.778l.5.5V320.346a.5.5 0 0 0-1 0V453.35a.5.5 0 0 0 .5.5H669.5a.5.5 0 0 0 0-1zM560.279 312.346v8h1v-8zm-3.147 4.354l4-4h-.707l4 4 .707-.707-4-4-.353-.354-.354.354-4 4z" fill="#616161"/></g><g><path d="M246.051 410.256l139.22-.328a.5.5 0 0 0-.002-1l-139.22.328a.5.5 0 1 0 .002 1z" fill="#616161"/></g><g><path d="M246.05 200.356h121.526a.5.5 0 0 0 0-1H246.05a.5.5 0 0 0 0 1z" fill="#616161"/></g><g><path d="M315.093 410.076V229.732a.5.5 0 0 0-.5-.5l-69.045.034a.5.5 0 1 0 0 1l69.045-.034-.5-.5v180.344a.5.5 0 1 0 1 0z" fill="#616161"/></g><g><path fill="#fff" d="M366.296 186.849h185.5v54h-185.5z"/><path stroke="#dfdfdf" stroke-linecap="round" stroke-linejoin="round" stroke-width="2" clip-path="url(#t)" d="M366.296 186.849h185.5v54h-185.5z"/><text transform="translate(416.296 197.85)" fill="#212121"><tspan font-family="Roboto" font-size="12" font-weight="400" x="0" y="13">HA Cloud VPN Gateway</tspan> <tspan font-family="Roboto" font-size="12" font-weight="400" x="0" y="29">ha-vpn-gw-a</tspan></text><title>Cloud VPN</title><title>Fill-1</title><path d="M408.347 212.563l-5.754-10.006c-.462-.799-1.298-1.286-2.158-1.286h-11.508c-.922 0-1.728.54-2.158 1.285l-5.754 9.987a2.51 2.51 0 0 0-.001 2.501l5.754 10.052c.461.799 1.298 1.332 2.158 1.332h11.508c.922 0 1.727-.582 2.158-1.326l5.754-10.007a2.566 2.566 0 0 0 0-2.532" fill="#4285f4"/><title>Fill-4</title><path d="M408.67 213.665l-7.676-7.675-3.592 3.586 1.798 1.798v2.366l-1.812.35-1.498-1.498-1.662-.092-1.91 1.43-1.884-1.885-3.582 3.597 10.782 10.785h2.8c.922 0 1.727-.58 2.158-1.325l5.754-10.007a2.53 2.53 0 0 0 .324-1.43" fill="#000" fill-opacity=".07"/><title>Fill-6</title><path fill="#fff" d="M396.097 213.303h3.322v1.093h-3.322z"/><title>Fill-8</title><path fill="#fff" d="M398.654 209.198h1.093v9.305h-1.093z"/><title>Fill-9</title><path d="M397.56 218.11h3.28c.121 0 .22.097.22.218v3.28a.22.22 0 0 1-.22.219h-3.28a.219.219 0 0 1-.218-.219v-3.28a.22.22 0 0 1 .218-.219" fill="#fff"/><title>Fill-10</title><path d="M397.56 205.927h3.28a.22.22 0 0 1 .22.218v3.28a.22.22 0 0 1-.22.22h-3.28a.219.219 0 0 1-.218-.22v-3.28c0-.12.098-.218.218-.218" fill="#fff"/><title>Fill-11</title><path fill="#fff" d="M389.933 213.303h3.403v1.093h-3.403z"/><g><title>Fill-12</title><path d="M387.01 211.99h3.28a.22.22 0 0 1 .218.22v3.28c0 .12-.098.218-.219.218h-3.28a.219.219 0 0 1-.219-.219v-3.28c0-.12.098-.218.22-.218" fill="#fff"/></g><g><title>Fill-13</title><path d="M394.676 212.756c-.603 0-1.094.49-1.094 1.093a1.095 1.095 0 0 0 2.188 0c0-.603-.491-1.093-1.094-1.093m0 2.843c-.965 0-1.75-.785-1.75-1.75 0-.964.785-1.75 1.75-1.75s1.75.786 1.75 1.75c0 .965-.785 1.75-1.75 1.75" fill="#fff"/></g></g><g><path fill="#fff" d="M366.296 260.849h185.5v54h-185.5z"/><path stroke="#dfdfdf" stroke-linecap="round" stroke-linejoin="round" stroke-width="2" clip-path="url(#u)" d="M366.296 260.849h185.5v54h-185.5z"/><text transform="translate(416.296 271.85)" fill="#212121"><tspan font-family="Roboto" font-size="12" font-weight="400" x="0" y="13">Cloud Router</tspan> <tspan font-family="Roboto" font-size="12" font-weight="400" x="0" y="29">router-a (ASN 65001)</tspan></text><title>Cloud Router</title><title>Fill-1</title><path d="M408.366 286.563l-5.754-10.006c-.461-.799-1.297-1.286-2.158-1.286h-11.508c-.922 0-1.727.54-2.158 1.285l-5.754 9.987a2.51 2.51 0 0 0 0 2.501l5.754 10.052c.46.799 1.297 1.332 2.158 1.332h11.508c.922 0 1.727-.582 2.158-1.326l5.754-10.007a2.566 2.566 0 0 0 0-2.532" fill="#4285f4"/><title>Fill-4</title><path d="M399.441 284.458l-.464.894-.892-.892-4.128-1.422-2.65 1.422 4.744 4.743-.78.573-1.931-1.927h-4.96l-.463 1.354 11.217 11.224h1.32c.922 0 1.727-.58 2.158-1.325l4.188-7.285z" fill="#000" fill-opacity=".07"/><title>Fill-6</title><path d="M396.051 284.46v2.031h-2.711v-2.031h-2.034l3.39-3.39 3.39 3.39zm0 6.779v-2.036h-2.711v2.036h-2.034l3.39 3.39 3.39-3.39zm-6.1-4.748h-2.034v2.712h2.033v2.034l3.39-3.388-3.39-3.391zm9.49 2.712v2.034l-3.39-3.388 3.39-3.39v2.034h2.034v2.712z" fill="#fff"/></g><g><title>path solid</title><path d="M563.75 229.232H916.6v455.075H413.673v-1.287" stroke="#ebb53e" stroke-linecap="round" stroke-linejoin="round"/></g><g><title>path solid</title><path d="M564.74 198.856H937v396.288l-693.327-.154h-4.414v84.683l-.086 4h-10" stroke="#6041b0" stroke-linecap="round" stroke-linejoin="round"/></g><g><title>path solid</title><path d="M563.75 276.238h311.454v301.346H224.173v102.089" stroke="#6041b0" stroke-linecap="round" stroke-linejoin="round" stroke-dasharray="1.0,4.0"/></g><g><title>path solid</title><path d="M563.577 305.754H896.6v357.302H408.673h.5v16.616" stroke="#ebb53e" stroke-linecap="round" stroke-linejoin="round" stroke-dasharray="1.0,4.0"/></g><g><path fill="#fff" d="M838 395h118v93H838z"/><path stroke="#dfdfdf" stroke-linecap="round" stroke-linejoin="round" stroke-width="2" clip-path="url(#v)" d="M838 395h118v93H838z"/><text transform="translate(842 441)" fill="#212121"><tspan font-family="Roboto" font-size="12" font-weight="400" x="33.933" y="13">Internet</tspan></text><path d="M897 419.86c-5.52 0-10 4.48-10 10s4.48 10 10 10 10-4.48 10-10-4.48-10-10-10zm-1 17.93c-3.95-.49-7-3.85-7-7.93 0-.62.08-1.21.21-1.79l4.79 4.79v1c0 1.1.9 2 2 2zm6.9-2.54c-.26-.81-1-1.39-1.9-1.39h-1v-3c0-.55-.45-1-1-1h-6v-2h2c.55 0 1-.45 1-1v-2h2c1.1 0 2-.9 2-2v-.41c2.93 1.19 5 4.06 5 7.41 0 2.08-.8 3.97-2.1 5.39z" fill="#616161"/></g></g></svg>